<?xml version="1.0" encoding="utf-8"?>
<!-- Generator: Adobe Illustrator 22.0.0, SVG Export Plug-In . SVG Version: 6.00 Build 0)  -->
<svg version="1.1" id="Layer_1" xmlns="http://www.w3.org/2000/svg" xmlns:xlink="http://www.w3.org/1999/xlink" x="0px" y="0px"
	 viewBox="0 0 1536 384" style="enable-background:new 0 0 1536 384;" xml:space="preserve">
<style type="text/css">
	.st0{fill-rule:evenodd;clip-rule:evenodd;fill:none;}
	.st1{fill-rule:evenodd;clip-rule:evenodd;fill:#89C14A;}
	.st2{fill-rule:evenodd;clip-rule:evenodd;fill:#FFFFFF;}
</style>
<g id="Box">
	<rect id="Null" x="0" y="0" class="st0" width="1536" height="384"/>
	<g id="Flirc_Logo">
		<path id="LOGO" class="st1" d="M167.7,262c16.6-16,240.9-22.2,255.3-3.1C413.3,273.9,181.4,272.7,167.7,262L167.7,262z M63.2,87.8
			c-15.2,11.8-2.2,61.1,2,79.8c9.6,42.1,24.8,105.5,48.2,140.3c7.9,11.8,12.5,15.4,28,18.6c34.7,7.1,97.9,8.7,133.4,9.3
			c56.5,1,122.3-4,173.5-14.1C494.6,312.7,521,153,521,112.4c0.1-42-4.4-45.3-40.7-54.3C407.3,39.8,119.2,44.4,63.2,87.8L63.2,87.8z
			 M160,179.8c14.8,0,26.8,12,26.8,26.8c0,14.8-12,26.8-26.8,26.8c-14.8,0-26.8-12-26.8-26.8C133.2,191.8,145.2,179.8,160,179.8
			L160,179.8z M416,168c13.3,0,24.2,10.8,24.2,24.2c0,13.3-10.8,24.2-24.2,24.2c-13.3,0-24.2-10.8-24.2-24.2
			C391.8,178.8,402.7,168,416,168z"/>
		<g id="FLIRC">
			<path class="st2" d="M1152,128c23.8-0.3,44.6-1.7,41.8,26.2c-2,20-17.8,21.8-41.8,21.8V128L1152,128z M1214.9,222.1
				c17.1-10.2,32-24,37.8-53.2c5.8-28.7-5.7-57.2-20.7-72.9c-32-32-64-32-144-32v256h64v-80c2.1,0.5,11.7,6.8,19.5,16.7l57.9,73
				l49.6-29L1214.9,222.1z"/>
			<path class="st2" d="M1474.6,286.7l-36.1-40.3c-59.2,55.5-101.4,7.4-98.3-59.4c2.9-63.4,43.5-103.7,98.3-56.9l34.9-37.6
				c-68.6-80-194.7-28.8-193.4,99.7C1281.2,311.5,1403.2,375.5,1474.6,286.7z"/>
			<polygon class="st2" points="784,176 704,176 704,128 784,128 784,64 640,64 640,320 704,320 704,240 784,240 			"/>
			<polygon class="st2" points="816,320 960,320 960,256 880,256 880,64 816,64 			"/>
			<rect x="992" y="64" class="st2" width="64" height="256"/>
		</g>
	</g>
</g>
</svg>
